<svg width="223" height="220" viewBox="0 0 223 220" fill="none" xmlns="http://www.w3.org/2000/svg">
    <path
        d="M111 147.314H111C120.894 147.305 130.381 143.371 137.378 136.376C144.376 129.38 148.312 119.895 148.324 110.001V110C148.326 102.618 146.139 95.4005 142.039 89.261C137.939 83.1216 132.111 78.336 125.291 75.5093C118.471 72.6826 110.966 71.9419 103.725 73.3808C96.4841 74.8198 89.8326 78.3737 84.6116 83.5931C79.3907 88.8126 75.8348 95.4631 74.3938 102.704C72.9527 109.944 73.6912 117.449 76.5158 124.27C79.3404 131.091 84.1244 136.921 90.2625 141.022C96.4006 145.124 103.617 147.314 111 147.314ZM167.896 53.1034L168.249 52.7499L167.896 53.1034C182.987 68.1952 191.476 88.6576 191.5 110.001C191.5 125.922 186.778 141.486 177.932 154.724C169.088 167.961 156.515 178.28 141.805 184.372C127.096 190.466 110.91 192.059 95.2951 188.953C79.6796 185.848 65.3359 178.18 54.0779 166.922C42.8198 155.664 35.1529 141.32 32.0468 125.705C28.9407 110.089 30.5349 93.9035 36.6277 79.194C42.7206 64.4846 53.0384 51.9122 66.2766 43.0668L65.9988 42.651L66.2766 43.0668C79.5146 34.2213 95.0782 29.5001 111 29.5C132.342 29.523 152.805 38.0116 167.896 53.1034ZM37.9082 110L37.9082 110.001C37.9291 128.648 45.0687 146.583 57.8685 160.144L58.2321 159.8L57.8685 160.144C70.6683 173.704 88.1624 181.865 106.777 182.96L107.307 182.991V182.461V154.993V154.537L106.852 154.495C95.7571 153.473 85.4438 148.342 77.9351 140.11C70.4264 131.878 66.264 121.137 66.264 109.995C66.264 98.8522 70.4264 88.1117 77.9351 79.8793C85.4438 71.647 95.7571 66.5166 106.852 65.4943L107.307 65.4525V64.9964V37.528V36.9977L106.777 37.0289C88.1614 38.1272 70.6673 46.2909 57.8677 59.8528C45.0682 73.4146 37.929 91.3514 37.9082 110ZM114.704 182.461V182.991L115.233 182.96C133.843 181.865 151.332 173.701 164.12 160.138C176.91 146.575 184.033 128.637 184.033 109.995C184.033 91.3524 176.91 73.4148 164.12 59.8513C151.332 46.2877 133.843 38.1235 115.233 37.0289L114.704 36.9978V37.528V64.9964V65.4525L115.158 65.4943C126.253 66.5166 136.567 71.647 144.076 79.8793C151.584 88.1117 155.746 98.8522 155.746 109.995C155.746 121.137 151.584 131.878 144.076 140.11C136.567 148.342 126.253 153.473 115.158 154.495L114.704 154.537V154.993V182.461Z"
        fill="white" stroke="black" />
</svg>
    