<svg width="223" height="220" viewBox="0 0 223 220" fill="none" xmlns="http://www.w3.org/2000/svg">
    <path
        d="M49.1007 53.4368C59.9344 53.4368 69.4014 55.8308 77.5025 60.619C85.7009 65.3008 91.9961 71.8977 96.3881 80.41C100.78 88.9223 102.976 98.6584 102.976 109.618C102.976 120.471 100.731 130.153 96.2417 138.666C91.8497 147.178 85.5545 153.882 77.356 158.776C69.2549 163.564 59.8363 165.958 49.1007 165.958H8.25488V53.4368H49.1007ZM46.9047 138.347C55.2978 138.347 61.8859 135.846 66.6688 130.845C71.451 125.844 73.8424 118.769 73.8424 109.618C73.8424 100.361 71.451 93.2316 66.6688 88.2306C61.8859 83.1233 55.2978 80.5696 46.9047 80.5696H36.9494V138.347H46.9047Z"
        fill="#245866" />
    <path
        d="M114.482 110.181C114.482 99.2214 116.73 89.432 121.217 80.8133C125.806 72.0883 131.999 65.3316 139.81 60.5435C147.715 55.649 156.551 53.2017 166.308 53.2017C177.728 53.2017 187.734 56.3938 196.32 62.778C204.907 69.1622 210.909 77.9937 214.328 89.2724H190.757C188.415 83.9522 185.099 79.9621 180.802 77.302C176.608 74.642 171.725 73.3119 166.162 73.3119C160.211 73.3119 154.889 74.8547 150.204 77.9404C145.615 80.9197 142.006 85.1759 139.371 90.7088C136.831 96.2415 135.564 102.733 135.564 110.181C135.564 117.522 136.831 124.013 139.371 129.652C142.006 135.185 145.615 139.494 150.204 142.58C154.889 145.559 160.211 147.049 166.162 147.049C171.725 147.049 176.608 145.719 180.802 143.059C185.099 140.293 188.415 136.25 190.757 130.929H214.328C210.909 142.315 204.907 151.199 196.32 157.583C187.829 163.861 177.823 167 166.308 167C156.551 167 147.715 164.606 139.81 159.818C131.999 154.923 125.806 148.167 121.217 139.548C116.73 130.929 114.482 121.14 114.482 110.181Z"
        fill="#245866" />
</svg>
    