<svg width="292" height="292" viewBox="0 0 292 292" fill="none" xmlns="http://www.w3.org/2000/svg">
    <path
        d="M140.918 33.7811C140.817 34.3801 138.11 36.377 135.002 38.274C131.794 40.0712 128.285 42.068 127.182 42.7669C126.079 43.4658 124.275 44.4642 123.172 45.0633C122.069 45.6624 119.863 46.9603 118.159 48.0586C116.555 49.057 114.048 50.5546 112.644 51.3534C111.241 52.1521 108.333 53.7496 106.128 54.9477C103.922 56.1458 100.814 58.0429 99.1094 59.1411C97.5054 60.1395 95.3998 61.3377 94.5977 61.737C93.7956 62.1364 90.3868 64.0334 87.0782 66.0303C81.0627 69.7244 73.0419 74.2174 66.525 77.612C64.6202 78.7102 62.8155 79.7088 62.5147 80.108C61.7125 80.9068 51.4861 86.9973 50.8847 86.9973C50.5839 86.9973 48.2778 88.2951 45.7714 89.9924C43.3652 91.5899 41.1593 92.9877 40.9589 92.9877C40.5579 92.9877 30.5319 98.7786 25.4187 101.974C24.6166 102.473 21.9096 103.97 19.4031 105.169C16.8966 106.467 14.2899 108.064 13.588 108.663C12.8862 109.362 11.5828 109.961 10.7808 109.961C7.57246 109.961 9.77817 113.056 15.2925 116.351C18.5008 118.348 21.4083 119.945 21.7091 119.945C22.1101 119.945 26.4213 122.441 31.4342 125.437C36.4472 128.432 40.9589 130.928 41.4602 130.928C42.0618 130.928 42.4627 131.327 42.4627 131.926C42.4627 132.426 42.964 132.925 43.5657 132.925C44.5683 132.925 55.9978 139.315 61.5121 142.909C62.3142 143.508 63.7177 144.207 64.5198 144.606C65.322 145.006 68.7307 146.903 72.0393 148.9C75.3479 150.896 78.7567 152.794 79.5588 153.193C80.3609 153.592 82.4664 154.79 84.0705 155.889C86.6773 157.586 92.1916 160.581 99.711 164.375C100.714 164.875 101.616 165.673 101.616 166.073C101.616 166.572 102.218 166.871 103.02 166.871C103.822 166.871 105.125 167.47 105.827 168.07C106.529 168.768 109.135 170.366 111.642 171.664C114.148 172.862 116.855 174.359 117.657 174.859C121.568 177.355 132.396 183.545 133.699 184.144C134.501 184.543 136.707 185.742 138.511 186.84L141.82 188.837L141.519 179.252L141.218 169.567L134.2 165.973C130.39 163.976 124.475 160.781 121.166 158.884C117.858 156.987 114.249 154.89 113.146 154.191C112.043 153.592 108.935 151.895 106.128 150.497C103.421 149 100.413 147.402 99.6107 146.903C98.8086 146.404 93.7956 143.408 88.5821 140.313C79.0575 134.722 74.5458 131.327 74.5458 129.73C74.5458 129.231 75.5484 128.432 76.8518 127.933C78.0549 127.334 80.4612 126.036 82.0653 124.937C83.7696 123.839 85.7748 122.641 86.5769 122.242C87.3791 121.842 90.7878 119.945 94.0964 117.948C97.405 116.051 101.917 113.555 104.122 112.457C106.328 111.359 108.734 109.861 109.436 109.162C110.138 108.563 111.441 107.964 112.243 107.964C113.046 107.964 113.647 107.565 113.647 107.165C113.647 106.666 115.552 105.368 117.958 104.07C120.264 102.872 122.871 101.474 123.673 100.975C124.475 100.476 125.879 99.877 126.681 99.5773C127.483 99.178 129.388 98.1797 130.791 97.1811C132.295 96.2825 135.303 94.3856 137.609 93.0875L141.72 90.5915V82.3046V74.0178L139.013 75.2158C137.408 75.9147 135.604 76.8132 134.802 77.4124C133.298 78.6104 129.889 80.6073 127.683 81.6057C126.881 82.005 122.269 84.8007 117.457 87.6962C112.745 90.5915 108.534 92.9877 108.233 92.9877C107.932 92.9877 103.721 95.384 98.9089 98.2795C94.0964 101.175 89.3843 103.871 88.5821 104.27C87.78 104.769 86.176 105.568 85.0731 106.267C83.9703 106.966 80.3609 109.062 77.0523 110.96C73.7437 112.856 70.1345 114.953 69.0315 115.652C67.9288 116.351 66.1241 117.349 65.0211 117.948C63.9184 118.547 61.7125 119.846 60.0082 120.844C57.0004 122.641 56.2986 122.541 51.4861 119.746C50.684 119.246 49.1801 118.647 48.2778 118.348C47.2752 117.948 46.4731 117.349 46.4731 116.85C46.4731 116.351 45.8717 115.952 45.0696 115.952C43.1645 115.952 40.4576 113.256 40.4576 111.359C40.4576 109.961 44.5683 107.066 53.6918 102.073C56.5994 100.576 60.6098 98.2795 62.5147 97.0813C64.4197 95.9831 66.7255 94.685 67.5276 94.2858C69.0315 93.5868 80.7619 86.7974 83.5692 85.0003C84.3713 84.4012 86.0756 83.6025 87.2787 83.1034C88.3817 82.5043 89.6851 81.6057 90.086 81.1064C90.3868 80.5075 91.5899 80.0082 92.6929 80.0082C93.6955 80.0082 94.5977 79.609 94.5977 79.1097C94.5977 78.6104 95.6003 77.8116 96.9037 77.4124C98.1068 77.0129 100.513 75.7151 102.117 74.5168C103.822 73.3188 107.13 71.3219 109.637 70.1239C112.143 68.9256 115.552 67.0287 117.156 65.9303C118.86 64.9319 120.866 63.7339 121.668 63.3344C122.47 62.9352 125.979 60.9382 129.488 58.8416C132.897 56.7449 136.105 55.0476 136.506 55.0476C136.907 54.9477 138.211 54.149 139.514 53.0507C141.62 51.2535 141.82 50.5546 141.419 41.8683C141.319 36.7763 141.018 33.0822 140.918 33.7811Z"
        fill="#3E61EF" />
    <path
        d="M148.938 64.7323L149.239 92.2888L152.247 94.1857C153.951 95.1841 156.157 96.3823 157.26 96.9815C158.363 97.4805 159.967 98.3791 160.769 98.9782C164.679 101.474 175.507 107.665 176.911 108.164C177.913 108.563 182.225 111.059 186.736 113.855C191.148 116.65 195.158 118.947 195.459 118.947C195.86 118.947 199.469 120.944 203.58 123.44C207.59 125.936 211.3 127.933 211.801 127.933C213.004 127.933 215.912 131.427 215.912 132.825C215.912 133.424 214.909 134.422 213.706 134.922C212.403 135.521 210.698 136.319 209.896 136.819C209.094 137.318 207.691 138.017 206.888 138.316C206.086 138.716 203.179 140.313 200.372 141.911C197.665 143.508 193.053 146.004 190.145 147.402C187.338 148.8 184.631 150.397 184.33 150.896C184.029 151.495 182.826 151.895 181.723 151.895C180.721 151.895 179.818 152.194 179.818 152.694C179.818 153.093 177.412 154.491 174.605 155.889C171.697 157.187 169.091 158.584 168.79 158.884C167.888 159.782 160.468 163.876 154.553 166.671L148.738 169.367V178.054C148.738 182.846 149.039 186.94 149.54 187.139C149.941 187.439 152.548 186.341 155.255 184.743C158.062 183.146 160.969 181.548 161.772 181.149C163.275 180.45 175.006 173.661 177.813 171.863C178.615 171.264 180.019 170.565 180.821 170.166C181.623 169.767 184.13 168.369 186.335 166.971C190.446 164.375 191.248 163.976 198.366 159.982C200.572 158.784 203.78 156.887 205.385 155.789C207.089 154.79 209.094 153.592 209.896 153.193C211.2 152.594 222.028 146.304 225.939 143.907C226.74 143.408 229.446 141.911 231.953 140.712C234.459 139.414 236.966 137.917 237.568 137.418C238.169 136.819 240.274 135.521 242.281 134.422C246.692 132.126 247.794 129.93 244.987 129.231C243.885 128.931 242.982 128.332 242.982 127.933C242.982 127.533 241.878 126.834 240.476 126.535C239.071 126.135 237.969 125.437 237.969 124.937C237.969 124.338 237.367 123.939 236.666 123.939C235.864 123.939 233.357 122.541 231.151 120.944C228.846 119.246 226.34 117.948 225.636 117.948C224.935 117.948 223.833 117.449 223.231 116.85C222.028 115.652 220.525 114.753 213.506 111.059C210.999 109.661 208.894 108.264 208.894 107.764C208.894 107.365 207.991 106.966 206.989 106.966C205.886 106.966 204.683 106.466 204.382 105.867C203.981 105.368 202.678 104.37 201.575 103.87C198.767 102.672 190.446 97.88 189.844 97.0813C189.543 96.7816 187.739 95.6834 185.834 94.5852C179.518 91.2904 175.407 88.8942 172.299 86.8972C170.695 85.8989 168.288 84.6008 167.085 84.1018C165.882 83.5026 164.479 82.2046 163.877 81.2062C162.774 79.1095 162.173 63.3344 163.175 62.3361C163.977 61.4373 171.798 63.9336 171.798 65.0317C171.798 65.6309 172.399 66.0301 173.201 66.0301C174.003 66.0301 175.307 66.6292 176.008 67.2283C176.71 67.9273 180.019 69.8242 183.227 71.5215C186.536 73.119 189.644 74.9161 190.245 75.5152C190.847 76.0145 193.353 77.512 195.86 78.81C198.366 80.0082 201.073 81.5057 201.875 82.005C206.788 85.1001 222.028 93.9861 222.429 93.9861C222.63 93.9861 227.341 96.6818 232.755 99.9766C238.269 103.271 243.282 105.967 243.885 105.967C244.485 105.967 244.987 106.367 244.987 106.966C244.987 107.465 245.59 107.964 246.391 107.964C247.193 107.964 248.497 108.563 249.198 109.162C250.701 110.66 252.406 111.658 261.33 116.351C266.943 119.346 269.55 119.845 271.055 118.048C271.756 117.15 275.166 115.153 277.571 114.055C278.774 113.555 280.179 112.557 280.88 111.758C281.883 110.56 281.281 109.861 277.773 108.064C275.466 106.866 272.258 104.969 270.554 103.97C268.95 102.972 265.541 101.075 263.034 99.7769C260.528 98.5789 255.815 95.883 252.506 93.8863C249.198 91.9892 245.789 90.0922 244.987 89.693C244.185 89.2935 242.18 88.0955 240.476 86.9971C238.872 85.9987 235.463 84.1018 232.956 82.8037C230.45 81.5057 228.244 80.2079 227.943 79.9082C227.643 79.5089 226.438 79.0096 225.235 78.6104C223.932 78.2109 222.93 77.4122 222.93 76.9131C222.93 76.4138 222.028 76.0145 221.024 76.0145C219.922 76.0145 218.719 75.5152 218.419 74.9161C218.018 74.417 216.714 73.4184 215.611 72.9194C214.408 72.4201 211.2 70.6229 208.392 68.9256C205.685 67.3282 202.176 65.431 200.672 64.9319C199.068 64.3328 197.865 63.4343 197.865 62.935C197.865 62.4359 196.963 62.0364 195.96 62.0364C194.857 62.0364 193.654 61.5373 193.353 60.9382C192.952 60.4389 191.649 59.4405 190.546 58.9413C189.343 58.4422 186.135 56.6448 183.327 55.0474C180.62 53.3501 177.212 51.553 175.808 50.9539C174.505 50.3549 173.101 49.656 172.8 49.2566C172.499 48.8572 170.294 47.5593 167.787 46.2613C165.281 45.0632 162.373 43.4657 161.27 42.7668C154.252 38.4736 151.646 37.0758 150.242 37.0758C148.938 37.0758 148.738 40.3706 148.938 64.7323Z"
        fill="#3E61EF" />
    <path
        d="M263.034 136.319C262.232 137.118 259.023 139.015 256.016 140.613C253.008 142.21 247.894 145.205 244.785 147.202C241.679 149.199 238.67 150.896 238.07 150.896C237.568 150.896 236.464 151.496 235.763 152.195C234.359 153.492 224.234 159.882 223.432 159.882C223.231 159.882 218.919 162.378 213.907 165.374C208.894 168.369 204.582 170.865 204.282 170.865C203.881 170.865 201.675 172.163 199.168 173.86C196.762 175.458 194.556 176.855 194.356 176.855C194.155 176.855 189.945 179.252 185.132 182.147C180.32 185.043 175.607 187.738 174.805 188.138C174.003 188.637 172.399 189.436 171.296 190.135C170.193 190.834 166.584 192.93 163.275 194.827C159.967 196.724 156.358 198.821 155.255 199.52C154.152 200.219 152.247 201.217 151.044 201.716C149.941 202.216 148.637 203.214 148.237 203.713C147.334 205.311 143.123 205.011 141.72 203.314C141.018 202.515 140.115 201.816 139.614 201.816C138.912 201.816 123.673 193.13 118.66 189.835C117.858 189.236 116.454 188.537 115.652 188.138C114.148 187.439 97.5051 177.754 94.5977 175.857C93.7956 175.258 92.392 174.559 91.5899 174.16C90.086 173.461 73.4429 163.776 70.5354 161.879C69.7333 161.28 68.3297 160.581 67.5276 160.182C66.7255 159.782 61.1111 156.488 54.9952 152.893C48.9796 149.299 43.2649 146.004 42.4627 145.605C41.6606 145.205 38.7532 143.508 35.9459 141.911C24.5163 135.021 25.4186 135.121 17.4981 139.814C13.588 142.11 10.3797 144.407 10.3797 145.006C10.3797 146.004 17.4981 150.697 26.9225 155.889C30.2311 157.686 36.1464 161.18 40.1567 163.577C44.067 165.873 47.5761 167.87 47.8767 167.87C48.2778 167.87 62.9156 176.556 75.0471 183.944C76.7515 185.043 78.7567 186.141 79.5588 186.44C80.3609 186.84 84.2709 189.136 88.1812 191.433C92.0912 193.829 95.5 195.826 95.9011 195.826C96.2019 195.826 103.521 200.019 112.143 205.211C120.766 210.403 128.686 214.996 129.689 215.295C130.791 215.694 131.694 216.393 131.694 216.892C131.694 217.392 132.295 217.791 132.997 217.791C133.599 217.791 136.205 219.189 138.712 220.786C144.327 224.481 145.83 224.481 151.946 220.786C154.553 219.089 157.059 217.791 157.26 217.791C157.561 217.791 159.666 216.393 161.972 214.796C164.178 213.098 166.484 211.801 166.985 211.801C167.386 211.801 171.497 209.504 175.908 206.709C180.42 203.913 184.731 201.417 185.734 201.017C186.636 200.718 194.155 196.325 202.377 191.333C210.698 186.341 218.117 181.948 218.919 181.548C219.721 181.149 221.826 179.951 223.432 178.852C225.137 177.754 227.341 176.456 228.445 175.857C229.547 175.258 231.352 174.26 232.455 173.561C233.557 172.862 237.167 170.765 240.476 168.868C243.784 166.971 247.393 164.874 248.497 164.176C249.599 163.477 251.203 162.678 252.005 162.179C252.807 161.779 257.318 159.183 262.031 156.388C266.743 153.592 271.255 150.996 272.057 150.597C273.862 149.798 276.769 148.001 279.778 145.805L281.982 144.207L279.074 142.01C277.471 140.912 275.867 139.914 275.567 139.914C275.266 139.914 273.26 138.816 271.055 137.418C266.542 134.522 265.039 134.323 263.034 136.319Z"
        fill="#2E3FAA" />
    <path
        d="M16.9969 172.163C13.187 174.559 9.87844 176.856 9.67792 177.455C9.37714 178.353 14.2899 181.448 26.1205 188.038C28.3262 189.336 35.7454 193.629 42.5631 197.623C49.3808 201.617 55.697 205.311 56.4991 205.81C57.3012 206.309 62.2138 209.204 67.2268 212.2C72.3401 215.295 76.7515 217.791 76.9522 217.791C77.4535 217.791 104.122 233.466 107.631 235.763C108.434 236.362 109.837 237.061 110.639 237.46C111.441 237.859 114.85 239.756 118.259 241.853C121.568 243.85 125.277 245.846 126.48 246.147C127.683 246.545 128.686 247.344 128.686 247.844C128.686 248.342 129.187 248.742 129.789 248.742C131.393 248.742 142.722 255.832 142.722 256.83C142.722 258.228 147.434 257.828 148.036 256.43C148.337 255.832 150.242 254.334 152.347 253.235C154.553 252.136 161.371 248.244 167.587 244.549C173.803 240.755 179.217 237.76 179.517 237.76C179.919 237.76 180.921 237.16 181.723 236.362C182.626 235.663 185.633 233.766 188.34 232.268C191.148 230.771 199.269 226.078 206.387 221.785C213.606 217.591 225.036 210.802 231.953 206.808C238.872 202.815 245.688 198.721 247.193 197.623C248.696 196.624 250.101 195.826 250.401 195.826C250.903 195.826 272.258 183.345 276.068 180.849C276.87 180.25 278.575 179.451 279.778 178.852C282.484 177.754 281.883 175.158 278.673 173.76C277.571 173.261 274.765 171.764 272.558 170.366C270.352 169.068 267.545 167.97 266.343 167.87C265.14 167.87 259.023 170.965 252.807 174.659C246.591 178.453 240.776 181.748 239.974 182.147C239.172 182.547 237.167 183.745 235.463 184.843C233.859 185.941 231.753 187.139 230.952 187.539C230.15 187.938 224.333 191.233 218.117 195.027C211.901 198.721 206.588 201.816 206.387 201.816C205.986 201.816 189.945 211.201 185.834 213.797C185.032 214.297 181.423 216.393 177.813 218.49C174.204 220.487 167.286 224.58 162.473 227.476C157.661 230.371 153.45 232.767 153.149 232.767C152.849 232.767 151.345 233.666 149.841 234.864C146.633 237.16 141.92 236.861 139.614 234.165C139.013 233.367 138.11 232.767 137.609 232.767C137.108 232.767 132.797 230.371 127.984 227.476C123.172 224.58 118.46 221.885 117.657 221.485C116.855 221.086 114.85 219.888 113.146 218.789C111.542 217.691 109.436 216.493 108.634 216.094C107.13 215.395 90.2865 205.61 87.5795 203.813C86.7774 203.214 85.3739 202.515 84.5718 202.116C83.0679 201.417 66.4249 191.732 63.5173 189.835C62.7151 189.236 61.3116 188.537 60.5095 188.138C59.7073 187.738 55.1957 185.143 50.4835 182.347C45.7714 179.551 41.2597 176.955 40.4576 176.556C39.6554 176.057 38.0514 175.258 36.9485 174.559C28.5267 169.567 25.4187 167.87 24.7168 167.87C24.3158 167.87 20.8067 169.867 16.9969 172.163Z"
        fill="#1C258D" />
</svg>
    