<svg width="292" height="292" viewBox="0 0 292 292" fill="none" xmlns="http://www.w3.org/2000/svg">
    <path
        d="M110.08 148.713V117.387C110.885 117.387 111.69 118.19 112.495 118.19C120.545 120.6 151.135 127.026 157.575 129.435C163.21 131.042 168.845 133.452 172.065 136.665C175.285 139.877 176.895 143.894 177.7 150.319V151.926V184.858H222.78V147.91C222.78 147.91 222.78 142.287 222.78 141.484C221.975 131.845 220.365 123.813 216.34 117.387C211.51 109.355 205.875 102.929 198.63 98.1097C192.19 94.0936 185.75 90.8806 178.505 88.471H222.78V21H177.7V88.471C176.895 88.471 176.09 87.6677 175.285 87.6677C166.43 85.2581 135.84 78.8323 130.205 77.2258C123.765 75.6194 118.935 72.4065 115.715 69.1935C112.495 65.9806 110.08 61.1613 110.08 55.5387C110.08 55.5387 110.08 21.8032 110.08 21H65V57.9484C65 57.9484 65 63.571 65 64.3742C65.805 74.0129 67.415 82.0452 71.44 88.471C76.27 96.5032 81.905 102.929 89.15 107.748C95.59 111.765 102.03 114.977 109.275 117.387H65V149.516C65 149.516 65 151.926 65 153.532C68.22 214.577 116.52 264.377 176.895 270V224.216C139.865 218.594 111.69 187.268 110.08 148.713Z"
        fill="url(#paint0_linear_42_2)" />
    <defs>
        <linearGradient id="paint0_linear_42_2" x1="4.54691" y1="-88.6098" x2="274.453" y2="286.297"
            gradientUnits="userSpaceOnUse">
            <stop stop-color="#DE3C1D" />
            <stop offset="1" stop-color="#6A26D1" />
        </linearGradient>
    </defs>
</svg>
    