<svg width="292" height="292" viewBox="0 0 292 292" fill="none" xmlns="http://www.w3.org/2000/svg">
   <path
      d="M91.7024 52.7118C41.9487 81.0354 38.8146 83.1264 33.7217 91.1102C30.1959 96.8129 30 101.185 30 152.51C30 193.759 30.5876 208.396 32.5464 210.677C36.2682 215.43 124.023 263.713 127.549 263.142C130.487 262.572 130.879 257.25 131.466 210.487C131.858 168.857 131.466 157.642 129.311 154.41C127.744 152.129 109.919 141.484 89.7436 130.459C69.5679 119.434 51.7428 108.599 50.1757 106.317C46.6499 101.375 48.4128 95.1021 53.7016 92.2507C56.8356 90.73 66.042 92.2507 96.4035 99.8544C117.755 105.177 137.734 109.549 140.868 109.549C149.487 109.549 238.613 60.3155 238.613 55.5632C238.613 52.5217 231.953 50.2406 191.602 39.9757C165.745 33.3226 142.435 28 139.693 28C136.951 28.1901 115.404 39.2154 91.7024 52.7118Z"
      fill="#6739B6" />
   <path
      d="M214.163 84.6141L207.69 88.6152L220.047 95.6649C226.912 99.4756 232.404 103.858 232.404 105.382C232.404 107.097 216.713 117.004 194.352 129.389C173.56 140.821 155.122 152.062 153.749 153.968C151.395 157.016 151.003 167.686 151.395 209.984C151.984 257.236 152.376 262.571 155.318 263.142C158.849 263.714 246.723 215.319 250.646 210.556C252.412 208.269 253 193.789 253 153.015C253 112.241 252.412 97.7608 250.646 95.4744C247.508 91.8543 226.912 80.6129 223.382 80.6129C221.812 80.6129 217.693 82.5182 214.163 84.6141Z"
      fill="#6739B6" />
</svg>
   