<svg width="292" height="292" viewBox="0 0 292 292" fill="none" xmlns="http://www.w3.org/2000/svg">
<path d="M136.774 213.991H177.949C182.325 213.448 186.368 211.378 189.367 208.145C192.366 204.913 194.127 200.725 194.34 196.321V136.887C194.34 133.105 192.838 129.477 190.164 126.803C187.489 124.129 183.862 122.626 180.08 122.626C176.298 122.626 172.671 124.129 169.996 126.803C167.322 129.477 165.82 133.105 165.82 136.887V174.619C165.802 177.44 164.674 180.14 162.68 182.134C160.686 184.128 157.986 185.256 155.165 185.274H136.578C132.795 185.291 129.173 186.803 126.501 189.481C123.83 192.159 122.326 195.784 122.317 199.567V199.764C122.352 203.566 123.893 207.2 126.604 209.867C129.314 212.534 132.972 214.017 136.774 213.991ZM112.089 170.423C108.09 170.423 104.254 168.834 101.426 166.006C98.5978 163.178 97.009 159.343 97.009 155.343V95.9084C97.2495 91.3013 99.1017 86.9253 102.242 83.5455C105.382 80.1657 109.61 77.9972 114.187 77.4191H155.46C159.47 77.4271 163.316 79.0078 166.173 81.8215C169.03 84.6352 170.668 88.4572 170.737 92.4663C170.759 94.4634 170.385 96.4452 169.638 98.2974C168.89 100.15 167.784 101.836 166.382 103.259C164.981 104.682 163.312 105.813 161.471 106.588C159.63 107.364 157.654 107.767 155.657 107.776H136.971C134.363 107.776 131.861 108.812 130.017 110.656C128.172 112.501 127.136 115.002 127.136 117.61V155.343C127.136 159.337 125.552 163.168 122.731 165.995C119.91 168.822 116.083 170.414 112.089 170.423Z" fill="#641CB3"/>
<path d="M155.46 78.2713H114.285C109.907 78.8081 105.86 80.8765 102.86 84.1103C99.8602 87.3441 98.1011 91.5349 97.894 95.9411V155.376C97.8015 157.304 98.1013 159.231 98.7754 161.039C99.4495 162.848 100.484 164.501 101.816 165.898C103.147 167.296 104.749 168.408 106.523 169.168C108.298 169.928 110.208 170.32 112.138 170.32C114.068 170.32 115.978 169.928 117.753 169.168C119.527 168.408 121.129 167.296 122.46 165.898C123.792 164.501 124.827 162.848 125.501 161.039C126.175 159.231 126.475 157.304 126.382 155.376V117.61C126.378 116.212 126.651 114.826 127.185 113.533C127.719 112.24 128.504 111.066 129.495 110.078C130.486 109.091 131.662 108.309 132.956 107.779C134.251 107.249 135.638 106.98 137.036 106.989H155.657C159.434 106.972 163.051 105.464 165.721 102.793C168.392 100.122 169.9 96.5052 169.917 92.7284V92.5317C169.849 88.737 168.297 85.1199 165.595 82.4546C162.893 79.7894 159.255 78.2878 155.46 78.2713ZM161.951 51.4551C169.772 51.4464 177.518 52.9833 184.744 55.9773C191.97 58.9714 198.532 63.3637 204.055 68.9018C209.578 74.4399 213.952 81.0148 216.926 88.2486C219.901 95.4824 221.416 103.233 221.386 111.054V225.367C220.703 229.235 218.813 232.787 215.986 235.514C213.159 238.241 209.54 240.002 205.65 240.545H129.66C121.854 240.549 114.123 239.015 106.91 236.029C99.6976 233.044 93.1438 228.666 87.6239 223.146C82.1041 217.627 77.7263 211.073 74.7409 203.86C71.7556 196.647 70.2212 188.916 70.2255 181.11V69.9445C70.2078 65.0572 72.119 60.3602 75.544 56.8738C78.9691 53.3874 83.6313 51.3931 88.5182 51.324M162.213 21.0002H87.3708C74.8092 21.0434 62.7755 26.0572 53.8993 34.9457C45.023 43.8343 40.0259 55.8749 40 68.4365V181.667C39.9957 193.408 42.3066 205.035 46.8006 215.881C51.2946 226.728 57.8835 236.582 66.19 244.879C74.4966 253.177 84.3578 259.755 95.2095 264.237C106.061 268.719 117.69 271.017 129.431 271H208.568C219.502 270.116 229.785 265.444 237.643 257.789C245.501 250.135 250.441 239.978 251.611 229.071V110.169C251.603 98.442 249.283 86.832 244.784 76.0025C240.286 65.173 233.697 55.3364 225.394 47.055C217.092 38.7737 207.238 32.21 196.397 27.7393C185.556 23.2686 173.94 20.9786 162.213 21.0002Z" fill="#641CB3"/>
</svg>

