<svg width="223" height="220" viewBox="0 0 223 220" fill="none" xmlns="http://www.w3.org/2000/svg">
    <path fill-rule="evenodd" clip-rule="evenodd"
        d="M113.081 11.951C112.2 12.5781 111.142 12.975 109.905 13.1417C110.932 13.5307 111.991 13.663 113.081 13.5386C112.057 28.2626 112.057 42.9479 113.081 57.5944C111.844 57.7611 110.786 58.158 109.905 58.7851C104.878 58.7851 99.8506 58.7851 94.8232 58.7851C95.3025 43.4466 95.8317 28.0998 96.4108 12.7448C101.921 11.9798 107.478 11.7152 113.081 11.951Z"
        fill="#75B974" />
    <path fill-rule="evenodd" clip-rule="evenodd"
        d="M167.059 11.9509C177.908 11.9509 188.756 11.9509 199.605 11.9509C199.829 12.5773 200.226 13.1065 200.796 13.5385C201.192 28.0891 201.325 42.642 201.192 57.1974C201.329 57.9846 201.064 58.5138 200.399 58.785C188.982 59.0361 177.605 58.7715 166.265 57.9912C166.001 51.5085 165.736 45.0259 165.471 38.5432C165.538 31.2075 166.067 23.931 167.059 16.7137C167.097 14.1209 165.775 12.9302 163.09 13.1416C164.584 12.9844 165.906 12.5875 167.059 11.9509Z"
        fill="#379B67" />
    <path fill-rule="evenodd" clip-rule="evenodd"
        d="M66.2465 11.951C71.5451 11.8191 76.8372 11.9514 82.1225 12.3479C77.8889 12.8772 77.8889 13.4063 82.1225 13.9355C80.8025 28.3616 80.0087 42.9147 79.7411 57.5944C81.2348 57.7517 82.5578 58.1486 83.7101 58.7851C77.3115 59.0403 70.9611 58.6434 64.6589 57.5944C65.7062 50.368 66.2354 42.9593 66.2465 35.3681C65.9567 27.398 65.9567 19.5924 66.2465 11.951Z"
        fill="#90C67A" />
    <path fill-rule="evenodd" clip-rule="evenodd"
        d="M21 11.9509C28.4088 11.9509 35.8176 11.9509 43.2264 11.9509C42.9204 21.701 42.6558 31.6235 42.4326 41.7184C42.4482 47.4636 42.9773 53.0202 44.0202 58.3881C36.8809 58.7849 29.7367 58.9171 22.5876 58.785C22.0584 58.5205 21.5292 58.2558 21 57.9912C21 42.6445 21 27.2977 21 11.9509Z"
        fill="#ADD481" />
    <path fill-rule="evenodd" clip-rule="evenodd"
        d="M43.2264 11.9509C50.8998 11.9509 58.5731 11.9509 66.2466 11.9509C65.9567 19.5923 65.9567 27.3979 66.2466 35.368C66.2354 42.9592 65.7062 50.3679 64.659 57.5943C70.9612 58.6433 77.3116 59.0402 83.7101 58.785C83.7101 59.0496 83.7101 59.3143 83.7101 59.5788C63.1993 59.8417 42.8252 59.5771 22.5876 58.785C29.7368 58.9171 36.8809 58.7849 44.0202 58.3881C42.9774 53.0202 42.4482 47.4636 42.4326 41.7184C42.6558 31.6235 42.9205 21.701 43.2264 11.9509Z"
        fill="#A0CD7F" />
    <path fill-rule="evenodd" clip-rule="evenodd"
        d="M21 11.951C21 11.6864 21 11.4218 21 11.1572C80.6686 10.8932 140.204 11.1578 199.605 11.951C188.756 11.951 177.908 11.951 167.059 11.951C159.385 11.951 151.712 11.951 144.039 11.951C139.012 11.951 133.984 11.951 128.957 11.951C123.664 11.951 118.373 11.951 113.081 11.951C107.478 11.7153 101.921 11.9799 96.4109 12.7448C95.8317 28.0998 95.3026 43.4467 94.8233 58.7851C91.1188 58.7851 87.4145 58.7851 83.7101 58.7851C82.5578 58.1486 81.2348 57.7517 79.7411 57.5944C80.0087 42.9147 80.8025 28.3616 82.1225 13.9355C77.8889 13.4063 77.8889 12.8772 82.1225 12.3479C76.8371 11.9514 71.5451 11.8191 66.2465 11.951C58.5731 11.951 50.8998 11.951 43.2264 11.951C35.8176 11.951 28.4088 11.951 21 11.951Z"
        fill="#87BF7D" />
    <path fill-rule="evenodd" clip-rule="evenodd"
        d="M113.08 11.9509C118.373 11.9509 123.664 11.9509 128.956 11.9509C128.625 12.5237 128.096 12.9206 127.369 13.1416C128.405 17.0458 128.933 21.147 128.956 25.4455C128.732 36.3098 128.203 47.1584 127.369 57.9912C121.593 58.7577 115.772 59.0222 109.905 58.785C110.786 58.1579 111.844 57.761 113.08 57.5943C112.057 42.9478 112.057 28.2625 113.08 13.5385C111.991 13.6629 110.932 13.5306 109.905 13.1416C111.142 12.9749 112.2 12.578 113.08 11.9509Z"
        fill="#69B371" />
    <path fill-rule="evenodd" clip-rule="evenodd"
        d="M144.039 11.9509C151.713 11.9509 159.385 11.9509 167.059 11.9509C165.907 12.5875 164.584 12.9844 163.09 13.1416C165.775 12.9302 167.097 14.1209 167.059 16.7137C166.067 23.931 165.538 31.2075 165.472 38.5432C165.736 45.0259 166.001 51.5085 166.265 57.9912C177.605 58.7715 188.982 59.0361 200.399 58.785C200.399 59.3143 200.134 59.5788 199.605 59.5788C184.523 59.5788 169.441 59.5788 154.358 59.5788C154.094 59.5788 153.829 59.5788 153.565 59.5788C153.3 59.5788 153.035 59.5788 152.771 59.5788C151.644 58.8238 150.322 58.5592 148.802 58.785C146.575 58.1345 144.194 57.7376 141.658 57.5943C142.295 42.8499 143.089 28.1647 144.039 13.5385C142.949 13.6629 141.89 13.5306 140.864 13.1416C142.101 12.9749 143.159 12.578 144.039 11.9509Z"
        fill="#4EA66B" />
    <path fill-rule="evenodd" clip-rule="evenodd"
        d="M199.605 11.9509C200.395 11.8828 201.057 12.1474 201.589 12.7447C202.247 27.6982 202.115 42.5157 201.192 57.1974C201.325 42.642 201.192 28.089 200.795 13.5385C200.226 13.1065 199.829 12.5773 199.605 11.9509Z"
        fill="#A0BFB0" />
    <path fill-rule="evenodd" clip-rule="evenodd"
        d="M154.358 59.5791C169.441 59.5791 184.523 59.5791 199.605 59.5791C197.1 61.751 194.19 63.3386 190.873 64.3419C178.724 63.5991 166.553 63.3345 154.358 63.5481C154.358 62.2251 154.358 60.9021 154.358 59.5791Z"
        fill="#6DBB61" />
    <path fill-rule="evenodd" clip-rule="evenodd"
        d="M154.358 63.5476C166.553 63.334 178.724 63.5986 190.873 64.3414C186.667 66.4447 182.433 68.5614 178.172 70.6918C170.234 70.6918 162.296 70.6918 154.358 70.6918C154.358 68.3104 154.358 65.929 154.358 63.5476Z"
        fill="#84C46C" />
    <path fill-rule="evenodd" clip-rule="evenodd"
        d="M131.338 59.5791C131.338 64.6065 131.338 69.6339 131.338 74.6613C130.691 76.3529 130.295 78.2051 130.147 80.2179C129.763 79.4653 129.632 78.6715 129.75 77.8365C115.004 77.5778 100.319 77.8424 85.6942 78.6303C85.2975 72.2854 85.1652 65.935 85.2973 59.5791C100.644 59.5791 115.991 59.5791 131.338 59.5791Z"
        fill="#4CA56B" />
    <path fill-rule="evenodd" clip-rule="evenodd"
        d="M153.564 59.5791C153.829 59.5791 154.094 59.5791 154.358 59.5791C154.358 60.9021 154.358 62.2251 154.358 63.5481C154.358 65.9295 154.358 68.3109 154.358 70.6923C162.296 70.6923 170.234 70.6923 178.172 70.6923C172.574 73.8905 166.753 76.9334 160.708 79.821C157.965 80.7124 155.715 80.0508 153.961 77.8365C153.564 71.7564 153.433 65.6706 153.564 59.5791Z"
        fill="#9CCD7A" />
    <path fill-rule="evenodd" clip-rule="evenodd"
        d="M128.956 11.9509C133.984 11.9509 139.012 11.9509 144.039 11.9509C143.158 12.578 142.1 12.9749 140.863 13.1416C141.89 13.5306 142.949 13.6629 144.039 13.5385C143.088 28.1647 142.295 42.8499 141.657 57.5943C144.193 57.7376 146.575 58.1345 148.801 58.785C143.096 58.5274 137.54 58.792 132.132 59.5788C131.867 59.5788 131.602 59.5788 131.338 59.5788C115.991 59.5788 100.644 59.5788 85.2976 59.5788C85.1655 65.9347 85.2978 72.2851 85.6945 78.63C100.319 77.8422 115.005 77.5775 129.75 77.8362C129.632 78.6713 129.764 79.4651 130.147 80.2176C130.295 78.2048 130.692 76.3526 131.338 74.661C131.338 85.2447 131.338 95.8292 131.338 106.413C130.689 108.373 130.292 110.489 130.147 112.763C127.581 111.743 124.803 111.213 121.812 111.176C109.913 110.534 98.0067 110.268 86.0914 110.382C86.2797 111.407 86.0152 112.201 85.2976 112.763C85.5567 105.739 85.292 98.8592 84.5038 92.1246C84.7649 81.1356 84.5003 70.287 83.71 59.5788C83.71 59.3143 83.71 59.0496 83.71 58.785C87.4144 58.785 91.1187 58.785 94.8231 58.785C99.8505 58.785 104.878 58.785 109.905 58.785C115.772 59.0222 121.593 58.7577 127.369 57.9912C128.203 47.1584 128.732 36.3098 128.956 25.4455C128.933 21.147 128.405 17.0458 127.369 13.1416C128.096 12.9206 128.625 12.5237 128.956 11.9509Z"
        fill="#5DAD6F" />
    <path fill-rule="evenodd" clip-rule="evenodd"
        d="M131.338 59.5791C131.602 59.5791 131.867 59.5791 132.132 59.5791C132.132 93.183 132.132 126.788 132.132 160.392C131.414 159.829 131.15 159.035 131.338 158.01C131.47 152.447 131.338 146.891 130.941 141.34C130.677 142.664 130.412 143.986 130.147 145.309C115.228 144.706 100.278 143.912 85.2977 142.928C85.5535 138.278 85.2889 133.779 84.5039 129.433C84.5039 116.997 84.5039 104.561 84.5039 92.1248C85.2921 98.8594 85.5568 105.739 85.2977 112.764C85.1658 117.798 85.2981 122.825 85.6946 127.846C89.4654 126.811 93.4344 126.282 97.6016 126.258C104.879 126.496 112.156 126.76 119.431 127.052C123.205 127.079 126.777 127.608 130.147 128.64C131.192 121.272 131.589 113.862 131.338 106.413C131.338 95.8295 131.338 85.245 131.338 74.6613C131.338 69.6339 131.338 64.6065 131.338 59.5791Z"
        fill="#7EBD78" />
    <path fill-rule="evenodd" clip-rule="evenodd"
        d="M131.338 106.413C131.589 113.862 131.192 121.271 130.148 128.639C126.777 127.608 123.205 127.079 119.431 127.052C112.156 126.76 104.879 126.495 97.6018 126.258C93.4346 126.282 89.4656 126.811 85.6948 127.846C85.2983 122.825 85.166 117.798 85.2979 112.763C86.0155 112.201 86.2801 111.407 86.0917 110.382C98.007 110.269 109.914 110.534 121.813 111.176C124.803 111.213 127.581 111.743 130.148 112.763C130.293 110.489 130.69 108.373 131.338 106.413Z"
        fill="#71B773" />
    <path fill-rule="evenodd" clip-rule="evenodd"
        d="M131.338 158.01C130.71 158.89 130.314 159.948 130.147 161.185C122.92 160.138 115.512 159.609 107.921 159.597C100.452 159.602 93.0435 159.867 85.6942 160.391C85.2975 154.576 85.1653 148.755 85.2973 142.928C100.277 143.912 115.227 144.706 130.147 145.309C130.411 143.986 130.676 142.663 130.941 141.34C131.338 146.89 131.469 152.447 131.338 158.01Z"
        fill="#8AC379" />
    <path fill-rule="evenodd" clip-rule="evenodd"
        d="M84.5039 129.433C85.2889 133.779 85.5535 138.278 85.2977 142.928C85.1657 148.755 85.2979 154.576 85.6946 160.391C93.0439 159.867 100.453 159.602 107.921 159.597C115.512 159.609 122.921 160.138 130.147 161.185C130.314 159.948 130.711 158.89 131.338 158.01C131.15 159.035 131.414 159.828 132.132 160.391C132.661 160.391 132.926 160.656 132.926 161.185C132.138 167.389 131.873 173.74 132.132 180.236C130.859 179.611 130.329 178.553 130.544 177.061C115.462 177.061 100.38 177.061 85.2977 177.061C85.5478 173.988 85.2831 171.077 84.5039 168.329C84.5039 155.364 84.5039 142.398 84.5039 129.433Z"
        fill="#97C97C" />
    <path fill-rule="evenodd" clip-rule="evenodd"
        d="M85.2976 177.061C100.38 177.061 115.462 177.061 130.544 177.061C130.329 178.553 130.858 179.612 132.132 180.236C132.132 188.174 132.132 196.112 132.132 204.05C132.132 204.315 132.132 204.58 132.132 204.844C131.644 201.197 130.981 197.493 130.147 193.731C115.251 194.528 100.301 194.528 85.2976 193.731C85.2976 188.174 85.2976 182.618 85.2976 177.061Z"
        fill="#A3CF7E" />
    <path fill-rule="evenodd" clip-rule="evenodd"
        d="M84.5037 168.329C85.2829 171.077 85.5475 173.988 85.2975 177.061C85.2975 182.618 85.2975 188.174 85.2975 193.731C100.301 194.528 115.251 194.528 130.147 193.731C130.981 197.493 131.643 201.197 132.132 204.844C131.772 205.605 131.243 206.267 130.544 206.829C115.729 207.225 100.911 207.358 86.0913 207.225C85.6012 207.137 85.2043 206.873 84.9006 206.432C84.5038 193.733 84.3714 181.033 84.5037 168.329Z"
        fill="#ACD480" />
</svg>
    